PathFileType	4	(X/Y/Z)	S1_rest_fast_right.trc
DataRate	CameraRate	NumFrames	NumMarkers	Units	OrigDataRate	OrigDataStartFrame	OrigNumFrames
250.00	250.00	7	18	mm	250.00	13509	21613
Frame#	Time	c7	r_should	l_should	clavicle	r_upa	r_elb_l	r_elb_m	r_low	r_wri_l	r_wri_m	r_met	l_upa	l_elb_l	l_elb_m	l_low	l_wri_l	l_wri_m	l_met
	X1	Y1	Z1	X2	Y2	Z2	X3	Y3	Z3	X4	Y4	Z4	X5	Y5	Z5	X6	Y6	Z6	X7	Y7	Z7	X8	Y8	Z8	X9	Y9	Z9	X10	Y10	Z10	X11	Y11	Z11	X12	Y12	Z12	X13	Y13	Z13	X14	Y14	Z14	X15	Y15	Z15	X16	Y16	Z16	X17	Y17	Z17	X18	Y18	Z18
13509	54.03200	412.30328	1421.81970	106.27127	500.43893	1353.09180	279.87720	451.15308	1360.18457	-88.34779	552.74567	1308.14514	85.45673	534.08533	1146.32959	326.87314	573.04504	1053.38330	332.96521	505.93042	1021.79382	260.03546	587.64636	917.80554	313.32077	687.33777	868.64899	313.50198	652.60974	849.30487	248.18750	713.80981	785.84723	327.83719	457.71362	1143.07312	-143.07849	472.04822	1061.77234	-155.99341	406.54059	1028.07788	-85.35308	466.70447	914.25446	-160.38319	557.11841	850.65302	-109.12206	503.65735	824.41925	-151.73643	599.69501	778.78192	-124.86320
13510	54.03600	412.53323	1421.82849	106.46415	500.89789	1352.95251	279.96838	451.20575	1360.28564	-88.21529	552.96362	1308.18311	85.45835	534.52704	1146.07410	326.56985	573.47644	1052.98059	332.52774	506.27112	1021.62921	259.52936	587.36719	917.28589	313.04446	686.73096	867.45831	313.51248	652.05933	848.20844	248.12094	712.68579	784.48834	328.02887	457.74808	1143.21191	-143.06622	472.05344	1061.90503	-156.01572	406.54407	1028.20239	-85.37219	466.61981	914.39899	-160.54442	557.02740	850.69006	-109.34514	503.50726	824.53564	-151.97504	599.52386	778.79584	-125.14799
13511	54.04000	412.75766	1421.84216	106.64539	501.34064	1352.81726	280.06314	451.26385	1360.39221	-88.09593	553.17822	1308.22107	85.45543	534.97455	1145.80847	326.23779	573.89465	1052.59583	332.12546	506.62036	1021.45111	258.98038	587.07751	916.76678	312.77328	686.12048	866.30499	313.51898	651.54657	847.14026	248.04823	711.59344	783.12347	328.18527	457.79330	1143.34814	-143.04781	472.06015	1062.04663	-156.04256	406.56567	1028.32190	-85.39222	466.54105	914.54962	-160.70302	556.94257	850.72925	-109.56712	503.36707	824.64899	-152.22432	599.36646	778.81171	-125.43233
13512	54.04400	412.97165	1421.85083	106.82153	501.76740	1352.69678	280.14893	451.32053	1360.50061	-87.98470	553.37811	1308.25977	85.45312	535.39966	1145.55420	325.90948	574.28381	1052.23157	331.73950	506.99289	1021.27502	258.40790	586.78558	916.25903	312.52597	685.52063	865.18842	313.51657	651.05005	846.12561	247.97247	710.46472	781.84448	328.36502	457.84555	1143.48035	-143.02667	472.06677	1062.18701	-156.06555	406.59952	1028.43994	-85.42361	466.47119	914.69214	-160.85910	556.86700	850.77142	-109.79171	503.24048	824.75879	-152.46216	599.20691	778.83691	-125.73920
13513	54.04800	413.18030	1421.86475	106.99004	502.17624	1352.57239	280.23090	451.37888	1360.59937	-87.87067	553.56439	1308.29456	85.45336	535.78619	1145.30530	325.61255	574.64868	1051.86719	331.38721	507.36737	1021.09741	257.85483	586.48950	915.77588	312.30377	684.92096	864.10748	313.50876	650.56287	845.16351	247.89601	709.34216	780.60547	328.54123	457.89859	1143.61609	-143.00250	472.07712	1062.32092	-156.08778	406.62875	1028.55591	-85.46107	466.40228	914.83417	-161.01404	556.78741	850.81494	-110.01238	503.11774	824.85492	-152.69832	599.05701	778.86023	-126.04323
13514	54.05200	413.38251	1421.87524	107.16689	502.57928	1352.44470	280.31952	451.44754	1360.69727	-87.75811	553.74432	1308.32031	85.45508	536.14697	1145.05261	325.34433	574.99652	1051.49841	331.06790	507.73169	1020.90167	257.32291	586.19812	915.30426	312.08704	684.31714	863.05688	313.50797	650.10443	844.19464	247.82571	708.20508	779.42255	328.74292	457.95505	1143.74280	-142.98460	472.09262	1062.45117	-156.10635	406.65967	1028.66870	-85.49435	466.33841	914.97101	-161.15286	556.71710	850.86133	-110.22529	503.01041	824.94739	-152.92879	598.91931	778.87976	-126.33186
13515	54.05600	413.56824	1421.87048	107.33134	502.98108	1352.32141	280.41147	451.52182	1360.79211	-87.64952	553.92267	1308.34412	85.46134	536.47235	1144.80042	325.08984	575.32117	1051.13220	330.78308	508.03113	1020.71906	256.89038	585.89868	914.83954	311.86728	683.69165	862.03711	313.53040	649.65704	843.24908	247.74242	707.08075	778.27393	328.93942	458.02484	1143.86462	-142.96539	472.11865	1062.57690	-156.12906	406.69699	1028.77661	-85.52499	466.27960	915.10254	-161.28986	556.66211	850.90125	-110.43400	502.90579	825.04132	-153.14859	598.79755	778.91064	-126.61398
